HIERARCHY
ROOT Hips
{
	OFFSET 0.00000 0.00000 0.00000
	CHANNELS 6 Xposition Yposition Zposition Zrotation Yrotation Xrotation 
	JOINT LHipJoint
	{
		OFFSET 0 0 0
		CHANNELS 3 Zrotation Yrotation Xrotation
		JOINT LeftHip
		{
			OFFSET 1.65674 -1.80282 0.62477
			CHANNELS 3 Zrotation Yrotation Xrotation
			JOINT LeftKnee
			{
				OFFSET 2.59720 -7.13576 0.00000
				CHANNELS 3 Zrotation Yrotation Xrotation
				JOINT LeftAnkle
				{
					OFFSET 2.49236 -6.84770 0.00000
					CHANNELS 3 Zrotation Yrotation Xrotation
					JOINT LeftToe
					{
						OFFSET 0.19704 -0.54136 2.14581
						CHANNELS 3 Zrotation Yrotation Xrotation
						End Site
						{
							OFFSET 0.00000 -0.00000 1.11249
						}
					}
				}
			}
		}
	}
	JOINT RHipJoint
	{
		OFFSET 0 0 0
		CHANNELS 3 Zrotation Yrotation Xrotation
		JOINT RightHip
		{
			OFFSET -1.61070 -1.80282 0.62476
			CHANNELS 3 Zrotation Yrotation Xrotation
			JOINT RightKnee
			{
				OFFSET -2.59502 -7.12977 0.00000
				CHANNELS 3 Zrotation Yrotation Xrotation
				JOINT RightAnkle
				{
					OFFSET -2.46780 -6.78024 0.00000
					CHANNELS 3 Zrotation Yrotation Xrotation
					JOINT RightToe
					{
						OFFSET -0.23024 -0.63258 2.13368
						CHANNELS 3 Zrotation Yrotation Xrotation
						End Site
						{
							OFFSET -0.00000 -0.00000 1.11569
						}
					}
				}
			}
		}
	}
	JOINT lowerback
	{
		OFFSET 0 0 0
		CHANNELS 3 Zrotation Yrotation Xrotation
		JOINT Chest
		{
			OFFSET 0.01961 2.05450 -0.14112
			CHANNELS 3 Zrotation Yrotation Xrotation
			JOINT Chest2
			{
				OFFSET 0.01021 2.06436 -0.05921
				CHANNELS 3 Zrotation Yrotation Xrotation
				JOINT lowerneck
				{
					OFFSET 0 0 0
					CHANNELS 3 Zrotation Yrotation Xrotation
					JOINT Neck
					{
						OFFSET 0.00713 1.56711 0.14968
						CHANNELS 3 Zrotation Yrotation Xrotation
						JOINT Head
						{
							OFFSET 0.03429 1.56041 -0.10006
							CHANNELS 3 Zrotation Yrotation Xrotation
							End Site
							{
								OFFSET 0.01305 1.62560 -0.05265
							}
						}
					}
				}
				JOINT LeftCollar
				{
					OFFSET 0 0 0
					CHANNELS 3 Zrotation Yrotation Xrotation
					JOINT LeftShoulder
					{
						OFFSET 3.54205 0.90436 -0.17364
CHANNELS 3 Zrotation Xrotation Yrotation
						JOINT LeftElbow
						{
OFFSET 0 -4.865130 -0.000000
CHANNELS 3 Zrotation Xrotation Yrotation
							JOINT LeftWrist
							{
OFFSET 0 -3.355540 0.000000
CHANNELS 3 Zrotation Xrotation Yrotation
								JOINT lhand
								{
									OFFSET 0 0 0
CHANNELS 3 Zrotation Xrotation Yrotation
									JOINT LFingers
									{
OFFSET 0 -0.661170 0.000000
CHANNELS 3 Zrotation Xrotation Yrotation
										End Site
										{
OFFSET 0 -0.533060 0.000000
										}
									}
								}
								JOINT LThumb
								{
OFFSET 0 0.000000 0.000000
CHANNELS 3 Zrotation Xrotation Yrotation
									End Site
									{
OFFSET 0 -0.541200 0.541200
									}
								}
							}
						}
					}
				}
				JOINT RightCollar
				{
					OFFSET 0 0 0
					CHANNELS 3 Zrotation Yrotation Xrotation
					JOINT RightShoulder
					{
						OFFSET -3.49802 0.75994 -0.32616
CHANNELS 3 Zrotation Xrotation Yrotation
						JOINT RightElbow
						{
OFFSET 0 -5.026490 0.000000
CHANNELS 3 Zrotation Xrotation Yrotation
							JOINT RightWrist
							{
OFFSET 0 -3.364310 0.000000
CHANNELS 3 Zrotation Xrotation Yrotation
								JOINT rhand
								{
									OFFSET 0 0 0
CHANNELS 3 Zrotation Xrotation Yrotation
									JOINT RFingers
									{
OFFSET 0 -0.730410 0.000000
CHANNELS 3 Zrotation Xrotation Yrotation
										End Site
										{
OFFSET 0 -0.588870 0.000000
										}
									}
								}
								JOINT RThumb
								{
OFFSET 0 0.000000 0.000000
CHANNELS 3 Zrotation Xrotation Yrotation
									End Site
									{
OFFSET 0 -0.597860 0.597860
									}
								}
							}
						}
					}
				}
			}
		}
	}
}
MOTION
Frames: 6
Frame Time: 0.008333333333333333
10.979630 17.594027 0.594830 -0.840463 1.790038 17.993965 0.000000 0.000000 0.000000 -17.334673 -12.859870 -40.379161 6.057229 14.480203 45.204664 0.190929 5.305926 -11.881971 0.017193 -0.846747 -2.327323 0.000000 0.000000 0.000000 14.113479 20.059820 -39.294548 -6.179725 -14.597652 45.693981 -0.211636 -5.768379 -12.678702 -0.014182 0.729025 -2.003583 -0.906999 -1.019051 26.939445 0.104468 -1.546326 3.954280 1.181191 -0.674912 -10.512608 -0.581901 -0.467980 -17.926981 0.152655 -0.562785 -19.492313 0.136829 -0.254322 -3.464030 0.000000 0.000000 0.000000 5.530809 5.500877 -23.234914 22.189948 -33.190965 6.689568 26.142081 -10.237133 -14.402804 0.000000 0.000000 0.000000 -7.125000 0.000000 0.000000 -1.280321 45.939976 0.030071 0.000000 0.000000 0.000000 -5.406604 9.377869 29.501741 -24.529951 -35.719669 -8.013891 -35.203182 -38.989080 -19.674852 0.000000 0.000000 0.000000 7.125000 0.000000 0.000000 -4.332443 6.403235 -3.833180
10.974454 17.669865 0.610440 -0.858312 1.849806 17.878784 0.000000 0.000000 0.000000 -17.425806 -12.693937 -39.480616 5.702366 14.131416 43.771161 0.140421 5.560170 -11.208332 0.014303 -0.770769 -2.118434 0.000000 0.000000 0.000000 14.431892 19.617576 -38.491043 -5.862329 -14.291936 44.423598 -0.155910 -5.978054 -11.930741 -0.003941 0.400168 -1.099428 -0.928361 -1.023912 26.568906 0.163316 -1.549567 3.922554 1.252663 -0.676741 -10.354293 -0.583551 -0.394202 -18.154615 0.046144 -0.470154 -19.042975 0.102225 -0.206143 -3.263361 0.000000 0.000000 0.000000 5.318394 5.875766 -22.265842 22.253385 -33.262222 6.724257 26.084978 -10.661367 -14.541458 0.000000 0.000000 0.000000 -7.125000 0.000000 0.000000 -1.353980 46.084375 0.036099 0.000000 0.000000 0.000000 -5.615856 9.670141 29.276560 -24.492952 -35.681238 -7.992337 -35.350993 -39.063383 -19.502739 0.000000 0.000000 0.000000 7.125000 0.000000 0.000000 -4.453646 6.566709 -3.927562
10.964566 17.739245 0.621869 -0.942134 1.964980 17.763403 0.000000 0.000000 0.000000 -17.372782 -12.614670 -38.629831 5.368394 13.786878 42.390843 0.094806 5.806366 -10.569312 0.010015 -0.645987 -1.775368 0.000000 0.000000 0.000000 14.853717 19.208936 -37.684471 -5.558250 -13.986084 43.181879 -0.101971 -6.256691 -11.227595 -0.001996 0.279224 -0.767085 -0.874540 -1.031863 26.298715 0.223547 -1.536768 3.838316 1.279886 -0.672257 -10.309790 -0.511602 -0.387412 -18.280173 -0.100963 -0.485267 -18.674940 0.040234 -0.216586 -3.109950 0.000000 0.000000 0.000000 5.301333 6.264190 -21.650015 22.193189 -33.194649 6.691258 26.437827 -11.104907 -14.555104 0.000000 0.000000 0.000000 -7.125000 0.000000 0.000000 -1.023266 46.147726 0.028999 0.000000 0.000000 0.000000 -5.767522 9.983972 29.112584 -24.395940 -35.580177 -7.935752 -35.655026 -39.440430 -19.773558 0.000000 0.000000 0.000000 7.125000 0.000000 0.000000 -4.597835 6.177908 -4.089865
10.955312 17.804344 0.633537 -0.854988 2.060012 17.577684 0.000000 0.000000 0.000000 -17.571215 -12.474898 -37.702363 5.065032 13.454870 41.099260 0.060768 6.017513 -10.081277 0.004141 -0.397181 -1.091475 0.000000 0.000000 0.000000 15.150964 18.667471 -36.787340 -5.265590 -13.675158 41.954750 -0.051759 -6.490208 -10.462913 -0.015515 0.769753 -2.115639 -0.897956 -1.022449 26.182681 0.199246 -1.534596 3.694843 1.265161 -0.669279 -10.412386 -0.608163 -0.525977 -18.243882 0.018611 -0.641374 -18.292076 0.090767 -0.291340 -2.975649 0.000000 0.000000 0.000000 5.420666 6.800586 -21.279221 22.061625 -33.046508 6.619481 26.763318 -11.532269 -14.266145 0.000000 0.000000 0.000000 -7.125000 0.000000 0.000000 -0.676612 45.874056 0.015159 0.000000 0.000000 0.000000 -5.803491 10.402081 28.725857 -24.164596 -35.337567 -7.801613 -35.305636 -39.056923 -19.894581 0.000000 0.000000 0.000000 7.125000 0.000000 0.000000 -4.359249 6.123351 -3.880891
10.948356 17.873478 0.650049 -0.846900 2.148337 17.315516 0.000000 0.000000 0.000000 -17.754618 -12.155026 -36.723535 4.779742 13.128699 39.856676 0.031388 6.140100 -9.551695 0.003048 -0.355802 -0.977692 0.000000 0.000000 0.000000 15.470443 18.201337 -35.816864 -4.984357 -13.363673 40.750165 -0.009559 -6.676836 -9.743690 -0.022823 0.973551 -2.676037 -0.840513 -1.036198 26.017523 0.178981 -1.538075 3.660547 1.207335 -0.674189 -10.367176 -0.586976 -0.538348 -18.413402 0.034225 -0.654891 -17.832824 0.090438 -0.300202 -2.785518 0.000000 0.000000 0.000000 5.477772 7.255005 -20.761366 22.011727 -32.990281 6.592232 26.837786 -11.854490 -14.051648 0.000000 0.000000 0.000000 -7.125000 0.000000 0.000000 -0.577875 45.647709 0.009267 0.000000 0.000000 0.000000 -5.779841 10.608417 28.338447 -23.868106 -35.023787 -7.631019 -35.005246 -38.468101 -19.750111 0.000000 0.000000 0.000000 7.125000 0.000000 0.000000 -4.195808 6.363351 -3.715452
10.943740 17.940912 0.666205 -0.912082 2.229230 17.092554 0.000000 0.000000 0.000000 -17.865166 -11.777897 -35.838077 4.511588 12.809150 38.662298 -0.000106 6.251655 -8.898802 0.005201 -0.454131 -1.247900 0.000000 0.000000 0.000000 15.738771 17.902646 -34.919931 -4.714378 -13.052236 39.568679 0.020056 -6.801154 -9.189548 -0.016375 0.770471 -2.117647 -0.696241 -1.057948 25.787818 0.175236 -1.526111 3.651810 1.110967 -0.675727 -10.261231 -0.511814 -0.483816 -18.601252 -0.044930 -0.596445 -17.444641 0.052549 -0.274638 -2.619874 0.000000 0.000000 0.000000 5.492169 7.634610 -20.211349 21.985126 -32.960210 6.577724 27.007375 -12.096154 -13.798592 0.000000 0.000000 0.000000 -7.125000 0.000000 0.000000 -0.387059 45.390400 0.004620 0.000000 0.000000 0.000000 -5.712635 10.742213 27.965054 -23.607226 -34.745837 -7.481701 -35.002953 -38.014011 -19.563789 0.000000 0.000000 0.000000 7.125000 0.000000 0.000000 -4.225723 6.579937 -3.723931
